<svg xmlns="http://www.w3.org/2000/svg">

<!-- INSTAGRAM -->
    <symbol id="ig" viewBox="0 0 64 64">
        <path
            d="M 44 57 H 20 c -7.2 0 -13 -5.8 -13 -13 V 20 c 0 -7.2 5.8 -13 13 -13 h 24 c 7.2 0 13 5.8 13 13 v 24 C 57 51.2 51.2 57 44 57 z M 20 9 C 13.9 9 9 13.9 9 20 v 24 c 0 6.1 4.9 11 11 11 h 24 c 6.1 0 11 -4.9 11 -11 V 20 c 0 -6.1 -4.9 -11 -11 -11 H 20 z" />
        <path
            d="M 32 45 c -7.2 0 -13 -5.8 -13 -13 c 0 -7.2 5.8 -13 13 -13 c 7.2 0 13 5.8 13 13 C 45 39.2 39.2 45 32 45 z M 32 23 c -5 0 -9 4 -9 9 c 0 5 4 9 9 9 c 5 0 9 -4 9 -9 C 41 27 37 23 32 23 z" />
        <path d="M 46 15 A 3 3 0 1 0 46 21 A 3 3 0 1 0 46 15 Z" />
    </symbol>
<!-- FACEBOOK -->
    <symbol id="fb" viewBox="0 0 64 64">
        <path fill="#ffffff"
            d="M42,56V38h5.358l0.934-8H42v-4.457c0-2.097-0.131-3.527,2.877-3.527L48,22.014v-6.479 c-1-0.088-2.487-0.285-5.136-0.285c-5.531,0-8.864,3.376-8.864,9.576V30h-7v8h7v18H42z" />
        <path fill="#ffffff"
            d="M50,57H14c-3.859,0-7-3.141-7-7V14c0-3.859,3.141-7,7-7h36c3.859,0,7,3.141,7,7v36 C57,53.859,53.859,57,50,57z M14,9c-2.757,0-5,2.243-5,5v36c0,2.757,2.243,5,5,5h36c2.757,0,5-2.243,5-5V14c0-2.757-2.243-5-5-5H14z" />
    </symbol>
<!-- YOUTUBE -->
    <symbol id="yt" viewBox="0 0 64 64">
        <path
            d="M 50 55 H 14 c -2.8 0 -5 -2.2 -5 -5 V 14 c 0 -2.8 2.2 -5 5 -5 h 36 c 2.8 0 5 2.2 5 5 v 36 C 55 52.8 52.8 55 50 55 z M 14 11 c -1.7 0 -3 1.3 -3 3 v 36 c 0 1.7 1.3 3 3 3 h 36 c 1.7 0 3 -1.3 3 -3 V 14 c 0 -1.7 -1.3 -3 -3 -3 H 14 z" />
        <path
            d="M 33 26 h -2 c -1.1 0 -2 -0.9 -2 -2 v -6 c 0 -1.1 0.9 -2 2 -2 h 2 c 1.1 0 2 0.9 2 2 v 6 C 35 25.1 34.1 26 33 26 z M 31.5 24 h 1 c 0.3 0 0.5 -0.2 0.5 -0.5 v -5 c 0 -0.3 -0.2 -0.5 -0.5 -0.5 h -1 c -0.3 0 -0.5 0.2 -0.5 0.5 v 5 C 31 23.8 31.2 24 31.5 24 z" />
        <path
            d="M 40 26 h -2 c -1.1 0 -2 -0.9 -2 -2 v -7.5 c 0 -0.3 0.2 -0.5 0.5 -0.5 h 1 c 0.3 0 0.5 0.2 0.5 0.5 V 24 h 2 v -7.5 c 0 -0.3 0.2 -0.5 0.5 -0.5 h 1 c 0.3 0 0.5 0.2 0.5 0.5 V 24 C 42 25.1 41.1 26 40 26 z" />
        <path
            d="M 26 13.5 V 19 h -3 v -5.5 c 0 -0.3 -0.2 -0.5 -0.5 -0.5 h -1 c -0.3 0 -0.5 0.2 -0.5 0.5 V 19 c 0 1.1 0.9 2 2 2 h 3 v 3 h -4.5 c -0.3 0 -0.5 0.2 -0.5 0.5 v 1 c 0 0.3 0.2 0.5 0.5 0.5 H 26 c 1.1 0 2 -0.9 2 -2 V 13.5 c 0 -0.3 -0.2 -0.5 -0.5 -0.5 h -1 C 26.2 13 26 13.2 26 13.5 z" />
        <path
            d="M 49.6 34 c -0.3 -3.1 -2.9 -5.5 -6.1 -5.8 c -3.5 -0.3 -19.4 -0.3 -23 0 c -3.2 0.2 -5.8 2.6 -6.1 5.8 C 14.1 36.3 14 38.1 14 39.5 s 0.1 3.2 0.4 5.5 c 0.3 3.1 2.9 5.5 6.1 5.8 C 22.3 50.9 27.1 51 32 51 s 9.7 -0.1 11.5 -0.2 c 1.6 -0.1 3.1 -0.8 4.2 -1.8 c 1.1 -1 1.8 -2.4 2 -4 C 49.9 42.7 50 40.9 50 39.5 S 49.9 36.3 49.6 34 z M 23 45.5 c 0 0.3 -0.2 0.5 -0.5 0.5 h -1 c -0.3 0 -0.5 -0.2 -0.5 -0.5 V 35 h -2.5 c -0.3 0 -0.5 -0.2 -0.5 -0.5 v -1 c 0 -0.3 0.2 -0.5 0.5 -0.5 h 7 c 0.3 0 0.5 0.2 0.5 0.5 v 1 c 0 0.3 -0.2 0.5 -0.5 0.5 H 23 V 45.5 z M 31 44 c 0 1.1 -0.9 2 -2 2 h -2 c -1.1 0 -2 -0.9 -2 -2 v -7.5 c 0 -0.3 0.2 -0.5 0.5 -0.5 h 1 c 0.3 0 0.5 0.2 0.5 0.5 V 44 h 2 v -7.5 c 0 -0.3 0.2 -0.5 0.5 -0.5 h 1 c 0.3 0 0.5 0.2 0.5 0.5 V 44 z M 38 44 c 0 1.1 -0.9 2 -2 2 h -2 c -1.1 0 -2 -0.9 -2 -2 V 33.5 c 0 -0.3 0.2 -0.5 0.5 -0.5 h 1 c 0.3 0 0.5 0.2 0.5 0.5 V 36 h 2 c 1.1 0 2 0.9 2 2 V 44 z M 45 40 c 0 1.1 -0.9 2 -2 2 h -2 v 2 h 2 v -0.5 c 0 -0.3 0.2 -0.5 0.5 -0.5 h 1 c 0.3 0 0.5 0.2 0.5 0.5 V 44 c 0 1.1 -0.9 2 -2 2 h -2 c -1.1 0 -2 -0.9 -2 -2 v -6 c 0 -1.1 0.9 -2 2 -2 h 2 c 1.1 0 2 0.9 2 2 V 40 z" />
        <path
            d="M 36 38.5 v 5 c 0 0.3 -0.2 0.5 -0.5 0.5 h -1 c -0.3 0 -0.5 -0.2 -0.5 -0.5 v -5 c 0 -0.3 0.2 -0.5 0.5 -0.5 h 1 C 35.8 38 36 38.2 36 38.5 z" />
        <path
            d="M 43 38.5 v 1 c 0 0.3 -0.2 0.5 -0.5 0.5 h -1 c -0.3 0 -0.5 -0.2 -0.5 -0.5 v -1 c 0 -0.3 0.2 -0.5 0.5 -0.5 h 1 C 42.8 38 43 38.2 43 38.5 z" />
    </symbol>
    
</svg>